<svg width="24" height="24" viewBox="0 0 24 24" fill="none" xmlns="http://www.w3.org/2000/svg">
<path d="M23.6 21.8L18 16.2C19.3 14.5 20.1 12.4 20.1 10.1C20.1 4.6 15.6 0.0999985 10.1 0.0999985C4.6 0.0999985 0 4.6 0 10.1C0 15.6 4.5 20.1 10 20.1C12.3 20.1 14.5 19.3 16.2 17.9L21.8 23.5C22 23.7 22.4 23.9 22.7 23.9C23 23.9 23.3 23.8 23.6 23.5C24.1 23.1 24.1 22.3 23.6 21.8ZM2.5 10.1C2.5 6 5.9 2.6 10 2.6C14.1 2.6 17.5 6 17.5 10.1C17.5 14.2 14.1 17.6 10 17.6C5.9 17.6 2.5 14.3 2.5 10.1Z" fill="#4D44B5"/>
</svg>
