<svg xmlns="http://www.w3.org/2000/svg" xml:space="preserve" width="800" height="800" fill="#4f259d" stroke="#4f259d" viewBox="0 0 512 512"><path d="M284.286 283.03c5.561 4.782 11.728 9.29 18.239 13.474-35.634 5.723-76.07 16.298-113.251 32.337 6.572-11.494 13.419-24.099 20.564-37.859 15.153-29.192 24.398-53.225 30.102-74.313 10.39 25.751 25.208 49.89 44.346 66.361zM511.5 85.667v340.667c0 46.842-38.325 85.167-85.167 85.167H85.667C38.825 511.5.5 473.175.5 426.333V85.667C.5 38.825 38.825.5 85.667.5h340.667C473.175.5 511.5 38.825 511.5 85.667zm-97.576 219.187c-5.556-8.745-24.401-13.562-53.079-13.562-11.27 0-24.294.803-38.458 2.445-10.101-5.714-19.911-12.172-28.777-19.229-22.289-18.298-38.653-48.645-48.856-79.128 4.083-22.587 4.424-42.176 4.768-62.278.056-3.206.11-6.429.181-9.685l-2.111-.237c-.746 3.678-1.428 8.226-2.218 13.493-1.424 9.477-3.302 21.932-6.797 37.345-6.897-28.313-8.192-54.242-3.632-67.645.856-2.524 2.768-5.362 3.853-6.512 3.35 1.894 8.462 6.566 9.633 17.645l2.106.085c1.651-8.679 1.056-14.807-1.757-18.21-2.581-3.115-6.296-3.115-7.693-3.115l-.646.004-6.423-.052c-4.306 0-7.691 3.427-9.288 9.4-5.566 20.776-2.749 55.895 8.063 90.906-6.791 23.653-17.268 52.393-34.085 86.26-41.542 83.641-72.022 125.01-93.141 126.411l-.002-.021c-.528-11.311 21.309-41.223 50.256-62.839l-1.137-1.793c-38.387 20.41-55.233 43.724-57.997 57.479-.707 3.535-.403 6.229.877 7.793l.375.195-.038.079 7.943 4.071c2.102 1.077 4.397 1.618 6.822 1.618h.002c17.526 0 42.506-27.938 74.438-83.15 35.741-12.808 85.252-23.134 129.952-27.633 27.513 14.658 58.145 23.587 77.465 23.587 13.894 0 17.582-4.566 18.223-8.4l.346-2.021-1.855.89c-2.225 1.064-5.423 1.605-9.519 1.605-14.326 0-37.401-6.492-61.035-17.508 7.216-.387 14.197-.595 20.847-.595 25.809 0 43.091 3.256 48.646 9.178 1.406 1.489 2.03 3.106 1.918 4.933l2.024.516c2.155-4.581 2.089-8.732-.194-12.325z"/></svg>