<svg width="30" height="34" viewBox="0 0 30 34" fill="none" xmlns="http://www.w3.org/2000/svg">
<path d="M28.3334 10.3333L18.3334 1.56667C17.4167 0.746745 16.2299 0.293449 15 0.293449C13.7701 0.293449 12.5834 0.746745 11.6667 1.56667L1.6667 10.3333C1.13732 10.8068 0.714869 11.3876 0.427489 12.0371C0.140109 12.6866 -0.00560967 13.3898 3.59199e-05 14.1V28.6667C3.59199e-05 29.9928 0.52682 31.2645 1.4645 32.2022C2.40218 33.1399 3.67395 33.6667 5.00004 33.6667H25C26.3261 33.6667 27.5979 33.1399 28.5356 32.2022C29.4733 31.2645 30 29.9928 30 28.6667V14.0833C30.0033 13.3759 29.8564 12.6759 29.5691 12.0295C29.2818 11.383 28.8606 10.8049 28.3334 10.3333ZM18.3334 30.3333H11.6667V22C11.6667 21.558 11.8423 21.1341 12.1549 20.8215C12.4674 20.5089 12.8913 20.3333 13.3334 20.3333H16.6667C17.1087 20.3333 17.5326 20.5089 17.8452 20.8215C18.1578 21.1341 18.3334 21.558 18.3334 22V30.3333ZM26.6667 28.6667C26.6667 29.1087 26.4911 29.5326 26.1785 29.8452C25.866 30.1577 25.4421 30.3333 25 30.3333H21.6667V22C21.6667 20.6739 21.1399 19.4021 20.2022 18.4645C19.2646 17.5268 17.9928 17 16.6667 17H13.3334C12.0073 17 10.7355 17.5268 9.79783 18.4645C8.86015 19.4021 8.33337 20.6739 8.33337 22V30.3333H5.00004C4.55801 30.3333 4.13409 30.1577 3.82152 29.8452C3.50896 29.5326 3.33337 29.1087 3.33337 28.6667V14.0833C3.33367 13.8467 3.38436 13.6128 3.48206 13.3973C3.57977 13.1818 3.72225 12.9895 3.90004 12.8333L13.9 4.08334C14.2042 3.81614 14.5952 3.66878 15 3.66878C15.4049 3.66878 15.7959 3.81614 16.1 4.08334L26.1 12.8333C26.2778 12.9895 26.4203 13.1818 26.518 13.3973C26.6157 13.6128 26.6664 13.8467 26.6667 14.0833V28.6667Z" fill="#C1BBEB"/>
</svg>
