<svg width="28" height="34" viewBox="0 0 28 34" fill="none" xmlns="http://www.w3.org/2000/svg">
<path d="M8.25454 0.509177C5.96888 1.64227 4.04646 3.39316 2.7053 5.56328C1.36414 7.73341 0.657909 10.2359 0.666707 12.787V18.7167C0.667766 19.5871 1.01403 20.4217 1.62954 21.0372C2.24506 21.6527 3.07957 21.999 3.95004 22H7.33337V32C7.33337 32.442 7.50897 32.866 7.82153 33.1785C8.13409 33.4911 8.55801 33.6667 9.00004 33.6667C9.44207 33.6667 9.86599 33.4911 10.1786 33.1785C10.4911 32.866 10.6667 32.442 10.6667 32V2.00001C10.6665 1.71599 10.5937 1.43674 10.4553 1.18872C10.3169 0.940713 10.1174 0.732161 9.8758 0.58284C9.6342 0.433519 9.35846 0.348378 9.07473 0.335486C8.79101 0.322595 8.50869 0.382381 8.25454 0.509177ZM7.33337 18.6833L4.00004 18.7167V12.787C3.99504 11.3525 4.28884 9.93274 4.86274 8.61806C5.43664 7.30337 6.27805 6.12262 7.33337 5.15101V18.6833ZM24 2.00001V8.66668C23.9995 9.10853 23.8237 9.53212 23.5112 9.84456C23.1988 10.157 22.7752 10.3328 22.3334 10.3333V2.00001C22.3334 1.55798 22.1578 1.13406 21.8452 0.821499C21.5327 0.508938 21.1087 0.333344 20.6667 0.333344C20.2247 0.333344 19.8008 0.508938 19.4882 0.821499C19.1756 1.13406 19 1.55798 19 2.00001V10.3333C18.5582 10.3328 18.1346 10.157 17.8222 9.84456C17.5097 9.53212 17.3339 9.10853 17.3334 8.66668V2.00001C17.3334 1.55798 17.1578 1.13406 16.8452 0.821499C16.5327 0.508938 16.1087 0.333344 15.6667 0.333344C15.2247 0.333344 14.8008 0.508938 14.4882 0.821499C14.1756 1.13406 14 1.55798 14 2.00001V8.66668C14.0015 9.99231 14.5287 11.2632 15.4661 12.2006C16.4035 13.138 17.6744 13.6652 19 13.6667V32C19 32.442 19.1756 32.866 19.4882 33.1785C19.8008 33.4911 20.2247 33.6667 20.6667 33.6667C21.1087 33.6667 21.5327 33.4911 21.8452 33.1785C22.1578 32.866 22.3334 32.442 22.3334 32V13.6667C23.659 13.6652 24.9299 13.138 25.8673 12.2006C26.8047 11.2632 27.3319 9.99231 27.3334 8.66668V2.00001C27.3334 1.55798 27.1578 1.13406 26.8452 0.821499C26.5327 0.508938 26.1087 0.333344 25.6667 0.333344C25.2247 0.333344 24.8008 0.508938 24.4882 0.821499C24.1756 1.13406 24 1.55798 24 2.00001Z" fill="#C1BBEB"/>
</svg>
