<svg width="38" height="34" viewBox="0 0 38 34" fill="none" xmlns="http://www.w3.org/2000/svg">
<path d="M32.3333 0.333313H15.6666C14.3405 0.333313 13.0688 0.860097 12.1311 1.79778C11.1934 2.73546 10.6666 4.00723 10.6666 5.33331V8.66665H5.66663C4.34054 8.66665 3.06877 9.19343 2.13109 10.1311C1.19341 11.0688 0.666627 12.3406 0.666627 13.6666V23.6666C0.666084 24.7011 0.986385 25.7102 1.58339 26.5549C2.18039 27.3997 3.0247 28.0385 3.99996 28.3833V32C4.00047 32.2953 4.07944 32.5852 4.22879 32.84C4.37815 33.0948 4.59252 33.3053 4.84996 33.45C5.09905 33.5912 5.38031 33.6658 5.66663 33.6666C5.96576 33.6666 6.25937 33.586 6.51663 33.4333L14.4666 28.6666H22.3333C23.6594 28.6666 24.9311 28.1399 25.8688 27.2022C26.8065 26.2645 27.3333 24.9927 27.3333 23.6666V22.6166L31.4833 25.1C31.7405 25.2526 32.0342 25.3332 32.3333 25.3333C32.6196 25.3324 32.9009 25.2578 33.15 25.1166C33.4074 24.9719 33.6218 24.7614 33.7711 24.5066C33.9205 24.2519 33.9994 23.962 34 23.6666V20.05C34.9752 19.7052 35.8195 19.0664 36.4165 18.2216C37.0135 17.3769 37.3338 16.3677 37.3333 15.3333V5.33331C37.3333 4.00723 36.8065 2.73546 35.8688 1.79778C34.9311 0.860097 33.6594 0.333313 32.3333 0.333313ZM24 23.6666C24 24.1087 23.8244 24.5326 23.5118 24.8452C23.1992 25.1577 22.7753 25.3333 22.3333 25.3333H14C13.7008 25.3334 13.4072 25.414 13.15 25.5666L7.33329 29.05V27C7.33329 26.558 7.1577 26.134 6.84514 25.8215C6.53258 25.5089 6.10865 25.3333 5.66663 25.3333C5.2246 25.3333 4.80068 25.1577 4.48812 24.8452C4.17555 24.5326 3.99996 24.1087 3.99996 23.6666V13.6666C3.99996 13.2246 4.17555 12.8007 4.48812 12.4881C4.80068 12.1756 5.2246 12 5.66663 12H10.6666V15.3333C10.6666 16.6594 11.1934 17.9312 12.1311 18.8688C13.0688 19.8065 14.3405 20.3333 15.6666 20.3333H23.5333L24 20.6166V23.6666ZM34 15.3333C34 15.7753 33.8244 16.1993 33.5118 16.5118C33.1992 16.8244 32.7753 17 32.3333 17C31.8913 17 31.4673 17.1756 31.1548 17.4881C30.8422 17.8007 30.6666 18.2246 30.6666 18.6666V20.7166L24.85 17.2333C24.5927 17.0807 24.2991 17.0001 24 17H15.6666C15.2246 17 14.8007 16.8244 14.4881 16.5118C14.1756 16.1993 14 15.7753 14 15.3333V5.33331C14 4.89129 14.1756 4.46736 14.4881 4.1548C14.8007 3.84224 15.2246 3.66665 15.6666 3.66665H32.3333C32.7753 3.66665 33.1992 3.84224 33.5118 4.1548C33.8244 4.46736 34 4.89129 34 5.33331V15.3333Z" fill="#C1BBEB"/>
</svg>
