<svg width="34" height="28" viewBox="0 0 34 28" fill="none" xmlns="http://www.w3.org/2000/svg">
<path d="M20.8834 27.3333H20.5334C19.828 27.2633 19.1632 26.9703 18.6357 26.4967C18.1082 26.0232 17.7454 25.3938 17.6 24.7L13.1334 4.00001L8.53337 14.6667C8.40326 14.9648 8.18875 15.2183 7.91629 15.396C7.64383 15.5737 7.32532 15.6678 7.00004 15.6667H2.00004C1.55801 15.6667 1.13409 15.4911 0.821529 15.1785C0.508969 14.866 0.333374 14.442 0.333374 14C0.333374 13.558 0.508969 13.1341 0.821529 12.8215C1.13409 12.5089 1.55801 12.3333 2.00004 12.3333H5.90004L10.0834 2.68334C10.365 2.03578 10.845 1.49438 11.4541 1.13719C12.0633 0.780012 12.7701 0.625507 13.4727 0.695954C14.1753 0.766402 14.8374 1.05816 15.3636 1.52917C15.8897 2.00018 16.2526 2.6261 16.4 3.31668L20.8667 24L25.4667 13.3667C25.5917 13.0623 25.8041 12.8018 26.0769 12.6179C26.3498 12.434 26.671 12.335 27 12.3333H32C32.4421 12.3333 32.866 12.5089 33.1786 12.8215C33.4911 13.1341 33.6667 13.558 33.6667 14C33.6667 14.442 33.4911 14.866 33.1786 15.1785C32.866 15.4911 32.4421 15.6667 32 15.6667H28.1L23.9167 25.3167C23.6613 25.9109 23.2385 26.4179 22.6999 26.776C22.1613 27.1341 21.5301 27.3277 20.8834 27.3333Z" fill="#C1BBEB"/>
</svg>
