<svg width="30" height="38" viewBox="0 0 30 38" fill="none" xmlns="http://www.w3.org/2000/svg">
<path d="M21.1757 9.87499C21.1757 10.2187 21.1523 10.5625 21.1093 10.9023C21.1289 10.7656 21.1484 10.625 21.164 10.4883C21.0703 11.168 20.8906 11.8281 20.6289 12.4609C20.6796 12.3359 20.7343 12.2109 20.7851 12.0859C20.5234 12.7031 20.1875 13.2812 19.7773 13.8125C19.8593 13.707 19.9414 13.6016 20.0234 13.4961C19.6171 14.0195 19.1445 14.4922 18.621 14.8984C18.7265 14.8164 18.832 14.7344 18.9375 14.6523C18.4062 15.0586 17.8281 15.3984 17.2109 15.6601C17.3359 15.6094 17.4609 15.5547 17.5859 15.5039C16.9531 15.7656 16.2929 15.9453 15.6132 16.0391C15.75 16.0195 15.8906 16 16.0273 15.9844C15.3437 16.0742 14.6562 16.0742 13.9726 15.9844C14.1093 16.0039 14.25 16.0234 14.3867 16.0391C13.707 15.9453 13.0468 15.7656 12.414 15.5039C12.539 15.5547 12.664 15.6094 12.789 15.6601C12.1718 15.3984 11.5937 15.0625 11.0624 14.6523C11.1679 14.7344 11.2734 14.8164 11.3789 14.8984C10.8554 14.4922 10.3828 14.0195 9.97651 13.4961C10.0585 13.6016 10.1406 13.707 10.2226 13.8125C9.81635 13.2812 9.47651 12.7031 9.21479 12.0859C9.26557 12.2109 9.32026 12.3359 9.37104 12.4609C9.10932 11.8281 8.92964 11.168 8.83589 10.4883C8.85542 10.625 8.87495 10.7656 8.89057 10.9023C8.80073 10.2187 8.80073 9.53124 8.89057 8.84765C8.87104 8.98437 8.85151 9.12499 8.83589 9.26171C8.92964 8.58202 9.10932 7.92187 9.37104 7.28905C9.32026 7.41405 9.26557 7.53905 9.21479 7.66405C9.47651 7.04687 9.81245 6.46874 10.2226 5.93749C10.1406 6.04296 10.0585 6.14843 9.97651 6.2539C10.3828 5.73046 10.8554 5.2578 11.3789 4.85155C11.2734 4.93359 11.1679 5.01562 11.0624 5.09765C11.5937 4.6914 12.1718 4.35155 12.789 4.08984C12.664 4.14062 12.539 4.1953 12.414 4.24609C13.0468 3.98437 13.707 3.80468 14.3867 3.71093C14.25 3.73046 14.1093 3.74999 13.9726 3.76562C14.6562 3.67577 15.3437 3.67577 16.0273 3.76562C15.8906 3.74609 15.75 3.72655 15.6132 3.71093C16.2929 3.80468 16.9531 3.98437 17.5859 4.24609C17.4609 4.1953 17.3359 4.14062 17.2109 4.08984C17.8281 4.35155 18.4062 4.68749 18.9375 5.09765C18.832 5.01562 18.7265 4.93359 18.621 4.85155C19.1445 5.2578 19.6171 5.73046 20.0234 6.2539C19.9414 6.14843 19.8593 6.04296 19.7773 5.93749C20.1836 6.46874 20.5234 7.04687 20.7851 7.66405C20.7343 7.53905 20.6796 7.41405 20.6289 7.28905C20.8906 7.92187 21.0703 8.58202 21.164 9.26171C21.1445 9.12499 21.125 8.98437 21.1093 8.84765C21.1523 9.18749 21.1718 9.53124 21.1757 9.87499C21.1796 10.6914 21.8906 11.4766 22.7382 11.4375C23.582 11.3984 24.3046 10.75 24.3007 9.87499C24.2929 8.0039 23.7304 6.08984 22.6289 4.5664C22.332 4.15624 22.0156 3.7539 21.664 3.39062C21.3085 3.02343 20.9179 2.70702 20.5117 2.39843C19.7734 1.83593 18.9492 1.42187 18.0742 1.10155C14.5468 -0.191414 10.2929 0.960929 7.9062 3.86718C7.57807 4.26562 7.26557 4.67968 6.99995 5.12499C6.73432 5.5664 6.52729 6.03515 6.33588 6.51171C5.97651 7.39452 5.79291 8.33202 5.71869 9.28124C5.57416 11.1406 6.05854 13.082 7.02729 14.6758C7.96088 16.2148 9.37104 17.5351 11.0195 18.2812C11.5039 18.5 11.9999 18.7031 12.5156 18.8476C13.0273 18.9883 13.5468 19.0664 14.0742 19.1289C15.0351 19.2422 16.0156 19.1641 16.9648 18.9726C20.5703 18.2383 23.5898 15.1328 24.1484 11.4883C24.2304 10.957 24.2929 10.4258 24.2929 9.88671C24.2968 9.0703 23.5703 8.28515 22.7304 8.32421C21.8867 8.35155 21.1757 8.99999 21.1757 9.87499ZM26.3593 34.3008C25.5937 34.3008 24.8281 34.3008 24.0625 34.3008C22.2382 34.3008 20.4179 34.3008 18.5937 34.3008C16.3984 34.3008 14.2031 34.3008 12.0039 34.3008C10.1093 34.3008 8.21479 34.3008 6.31635 34.3008C5.42963 34.3008 4.54291 34.3086 3.65619 34.3008C3.55854 34.3008 3.46088 34.293 3.36713 34.2812C3.50385 34.3008 3.64447 34.3203 3.78119 34.3359C3.62494 34.3125 3.4765 34.2695 3.33197 34.2109C3.45697 34.2617 3.58197 34.3164 3.70697 34.3672C3.55072 34.3008 3.40619 34.2148 3.26947 34.1094C3.37494 34.1914 3.48041 34.2734 3.58588 34.3555C3.46869 34.2578 3.35932 34.1523 3.26557 34.0351C3.3476 34.1406 3.42963 34.2461 3.51166 34.3516C3.40619 34.2148 3.32416 34.0703 3.25385 33.9141C3.30463 34.0391 3.35932 34.1641 3.4101 34.2891C3.3515 34.1445 3.31244 33.9922 3.2851 33.8398C3.30463 33.9766 3.32416 34.1172 3.33979 34.2539C3.27729 33.7812 3.32025 33.2812 3.32025 32.8047C3.32025 32.2461 3.32025 31.6914 3.32025 31.1328C3.32025 30.7148 3.34369 30.3008 3.39838 29.8867C3.37885 30.0234 3.35932 30.1641 3.34369 30.3008C3.45307 29.5 3.664 28.7148 3.98041 27.9687C3.92963 28.0937 3.87494 28.2187 3.82416 28.3437C4.12885 27.6328 4.51947 26.9648 4.99213 26.3516C4.9101 26.457 4.82807 26.5625 4.74604 26.668C5.21869 26.0625 5.76166 25.5156 6.37104 25.043C6.26557 25.125 6.1601 25.207 6.05463 25.2891C6.66791 24.8164 7.33588 24.4258 8.04682 24.1211C7.92182 24.1719 7.79682 24.2266 7.67182 24.2773C8.41792 23.9648 9.19917 23.75 10.0039 23.6406C9.86714 23.6601 9.72651 23.6797 9.58979 23.6953C10.1679 23.6211 10.7421 23.6172 11.3242 23.6172C12.039 23.6172 12.7539 23.6172 13.4687 23.6172C15.1367 23.6172 16.8046 23.6172 18.4726 23.6172C19.1171 23.6172 19.7578 23.6133 20.4023 23.6953C20.2656 23.6758 20.125 23.6562 19.9882 23.6406C20.789 23.75 21.5742 23.9609 22.3203 24.2773C22.1953 24.2266 22.0703 24.1719 21.9453 24.1211C22.6562 24.4258 23.3242 24.8164 23.9375 25.2891C23.832 25.207 23.7265 25.125 23.6211 25.043C24.2265 25.5156 24.7734 26.0586 25.2461 26.668C25.164 26.5625 25.082 26.457 25 26.3516C25.4726 26.9648 25.8632 27.6328 26.1679 28.3437C26.1172 28.2187 26.0625 28.0937 26.0117 27.9687C26.3242 28.7148 26.539 29.4961 26.6484 30.3008C26.6289 30.1641 26.6093 30.0234 26.5937 29.8867C26.6679 30.4766 26.6718 31.0625 26.6718 31.6562C26.6718 32.3008 26.6718 32.9453 26.6718 33.5898C26.6718 33.8125 26.6796 34.0351 26.6523 34.2539C26.6718 34.1172 26.6914 33.9766 26.707 33.8398C26.6836 33.9961 26.6406 34.1445 26.582 34.2891C26.6328 34.1641 26.6875 34.0391 26.7382 33.9141C26.6718 34.0703 26.5859 34.2148 26.4804 34.3516C26.5625 34.2461 26.6445 34.1406 26.7265 34.0351C26.6289 34.1523 26.5234 34.2617 26.4062 34.3555C26.5117 34.2734 26.6171 34.1914 26.7226 34.1094C26.5859 34.2148 26.4414 34.2969 26.2851 34.3672C26.4101 34.3164 26.5351 34.2617 26.6601 34.2109C26.5156 34.2695 26.3632 34.3086 26.2109 34.3359C26.3476 34.3164 26.4882 34.2969 26.625 34.2812C26.539 34.293 26.4492 34.2969 26.3593 34.3008C25.957 34.3047 25.5429 34.4726 25.2539 34.7578C24.9843 35.0273 24.7773 35.4726 24.7968 35.8633C24.8359 36.6992 25.4843 37.4375 26.3593 37.4258C27.8789 37.4023 29.2148 36.4101 29.6601 34.9531C29.8359 34.375 29.7968 33.7539 29.7968 33.1601C29.7968 31.8008 29.8398 30.4531 29.6054 29.1055C29.2617 27.1328 28.2695 25.2773 26.9101 23.8203C25.5507 22.3633 23.7226 21.293 21.789 20.8164C20.6796 20.543 19.5625 20.5 18.4296 20.5C17.2656 20.5 16.1054 20.5 14.9414 20.5C13.7929 20.5 12.6484 20.5 11.4999 20.5C10.3398 20.5 9.18745 20.5547 8.05854 20.8555C6.14057 21.3633 4.33588 22.4453 3.00385 23.9141C1.6601 25.3945 0.687439 27.2539 0.371032 29.2383C0.160095 30.5703 0.203063 31.9062 0.203063 33.25C0.203063 33.8672 0.167907 34.5117 0.390564 35.1016C0.679627 35.8594 1.14056 36.457 1.81635 36.9062C2.34369 37.2539 3.01166 37.4219 3.63666 37.4297C3.94135 37.4336 4.24604 37.4297 4.55072 37.4297C5.33197 37.4297 6.10932 37.4297 6.89057 37.4297C7.99995 37.4297 9.10542 37.4297 10.2148 37.4297C11.5039 37.4297 12.7929 37.4297 14.082 37.4297C15.4062 37.4297 16.7265 37.4297 18.0507 37.4297C19.2617 37.4297 20.4687 37.4297 21.6796 37.4297C22.6289 37.4297 23.5781 37.4297 24.5234 37.4297C25.0664 37.4297 25.6093 37.4297 26.1523 37.4297C26.2226 37.4297 26.2929 37.4297 26.3632 37.4297C27.1797 37.4297 27.9648 36.7109 27.9257 35.8672C27.8867 35.0156 27.2382 34.3008 26.3593 34.3008Z" fill="#C1BBEB"/>
</svg>
